<svg width="630" height="260" viewBox="0 0 630 260" fill="none" xmlns="http://www.w3.org/2000/svg">
<rect x="59" y="22" width="1" height="186" rx="0.5" fill="#D7D7D7"/>
<rect x="153" y="22" width="1" height="186" rx="0.5" fill="#D7D7D7"/>
<rect x="247.5" y="22.5" width="1" height="185" rx="0.5" stroke="#D7D7D7" stroke-dasharray="4 8"/>
<rect x="342" y="22" width="1" height="186" rx="0.5" fill="#D7D7D7"/>
<rect x="436" y="22" width="1" height="186" rx="0.5" fill="#D7D7D7"/>
<rect x="530" y="22" width="1" height="186" rx="0.5" fill="#D7D7D7"/>
<rect x="624" y="22" width="1" height="186" rx="0.5" fill="#D7D7D7"/>
<path d="M60.088 256.14C59.3973 256.14 58.7907 256.037 58.268 255.832C57.7453 255.627 57.2413 255.3 56.756 254.852C56.6907 254.787 56.6347 254.717 56.588 254.642C56.5507 254.558 56.532 254.469 56.532 254.376C56.532 254.227 56.5833 254.096 56.686 253.984C56.798 253.863 56.9333 253.802 57.092 253.802C57.2227 253.802 57.3393 253.853 57.442 253.956C57.806 254.311 58.198 254.581 58.618 254.768C59.0473 254.955 59.528 255.048 60.06 255.048C60.4707 255.048 60.8393 254.983 61.166 254.852C61.502 254.721 61.768 254.539 61.964 254.306C62.16 254.073 62.258 253.802 62.258 253.494C62.2487 253.121 62.1367 252.813 61.922 252.57C61.7167 252.327 61.4273 252.127 61.054 251.968C60.69 251.8 60.2653 251.66 59.78 251.548C59.3507 251.445 58.954 251.319 58.59 251.17C58.2353 251.021 57.9273 250.839 57.666 250.624C57.4047 250.4 57.1993 250.134 57.05 249.826C56.91 249.509 56.84 249.14 56.84 248.72C56.84 248.188 56.98 247.721 57.26 247.32C57.54 246.919 57.9273 246.611 58.422 246.396C58.9167 246.172 59.486 246.06 60.13 246.06C60.6993 246.06 61.236 246.153 61.74 246.34C62.2533 246.527 62.664 246.783 62.972 247.11C63.1587 247.287 63.252 247.46 63.252 247.628C63.252 247.768 63.1913 247.899 63.07 248.02C62.958 248.132 62.8273 248.188 62.678 248.188C62.5753 248.188 62.482 248.151 62.398 248.076C62.2393 247.899 62.0387 247.74 61.796 247.6C61.5533 247.46 61.2873 247.348 60.998 247.264C60.7087 247.18 60.4193 247.138 60.13 247.138C59.7007 247.138 59.3227 247.203 58.996 247.334C58.6693 247.455 58.4127 247.633 58.226 247.866C58.0487 248.09 57.96 248.361 57.96 248.678C57.96 249.033 58.0627 249.327 58.268 249.56C58.4733 249.784 58.7487 249.971 59.094 250.12C59.4393 250.26 59.822 250.386 60.242 250.498C60.6993 250.61 61.1193 250.741 61.502 250.89C61.894 251.03 62.23 251.207 62.51 251.422C62.79 251.637 63.0047 251.912 63.154 252.248C63.3127 252.575 63.392 252.981 63.392 253.466C63.392 253.979 63.2473 254.437 62.958 254.838C62.6687 255.239 62.272 255.557 61.768 255.79C61.2733 256.014 60.7133 256.131 60.088 256.14Z" fill="#5D6065"/>
<path d="M150.806 246.186C150.89 246.186 150.979 246.209 151.072 246.256C151.175 246.303 151.254 246.363 151.31 246.438L155.02 252.052L154.53 252.038L158.282 246.438C158.403 246.261 158.562 246.177 158.758 246.186C158.907 246.195 159.038 246.251 159.15 246.354C159.262 246.457 159.318 246.592 159.318 246.76V255.426C159.318 255.585 159.262 255.72 159.15 255.832C159.038 255.944 158.898 256 158.73 256C158.562 256 158.422 255.944 158.31 255.832C158.198 255.72 158.142 255.585 158.142 255.426V247.824L158.492 247.894L155.188 252.92C155.132 252.985 155.062 253.041 154.978 253.088C154.903 253.135 154.824 253.158 154.74 253.158C154.656 253.158 154.572 253.135 154.488 253.088C154.404 253.041 154.334 252.985 154.278 252.92L151.016 247.894L151.31 247.53V255.426C151.31 255.585 151.259 255.72 151.156 255.832C151.053 255.944 150.923 256 150.764 256C150.605 256 150.475 255.944 150.372 255.832C150.279 255.72 150.232 255.585 150.232 255.426V246.76C150.232 246.611 150.283 246.48 150.386 246.368C150.498 246.247 150.638 246.186 150.806 246.186Z" fill="#5D6065"/>
<path d="M247.27 256C247.102 256 246.962 255.944 246.85 255.832C246.738 255.72 246.682 255.585 246.682 255.426V246.774H247.872V255.426C247.872 255.585 247.816 255.72 247.704 255.832C247.592 255.944 247.447 256 247.27 256ZM244.022 247.264C243.863 247.264 243.728 247.217 243.616 247.124C243.513 247.021 243.462 246.891 243.462 246.732C243.462 246.573 243.513 246.447 243.616 246.354C243.728 246.251 243.863 246.2 244.022 246.2H250.532C250.691 246.2 250.826 246.251 250.938 246.354C251.05 246.447 251.106 246.573 251.106 246.732C251.106 246.9 251.05 247.031 250.938 247.124C250.826 247.217 250.691 247.264 250.532 247.264H244.022Z" fill="#5D6065"/>
<path d="M348.46 246.158C348.609 246.158 348.745 246.209 348.866 246.312C348.997 246.415 349.062 246.559 349.062 246.746C349.062 246.811 349.053 246.881 349.034 246.956L346.052 255.636C346.015 255.748 345.945 255.837 345.842 255.902C345.749 255.958 345.651 255.991 345.548 256C345.436 256 345.329 255.972 345.226 255.916C345.123 255.851 345.044 255.757 344.988 255.636L342.65 249.98L342.762 250.022L340.438 255.636C340.382 255.757 340.303 255.851 340.2 255.916C340.097 255.972 339.99 256 339.878 256C339.775 255.991 339.673 255.958 339.57 255.902C339.477 255.837 339.411 255.748 339.374 255.636L336.392 246.956C336.373 246.881 336.364 246.816 336.364 246.76C336.364 246.573 336.429 246.429 336.56 246.326C336.7 246.214 336.84 246.158 336.98 246.158C337.092 246.158 337.199 246.191 337.302 246.256C337.405 246.321 337.475 246.41 337.512 246.522L340.13 254.25H339.934L342.216 248.608C342.263 248.496 342.333 248.407 342.426 248.342C342.519 248.277 342.627 248.244 342.748 248.244C342.86 248.244 342.963 248.277 343.056 248.342C343.159 248.407 343.229 248.496 343.266 248.608L345.478 254.166L345.31 254.236L347.914 246.522C347.951 246.41 348.021 246.321 348.124 246.256C348.227 246.191 348.339 246.158 348.46 246.158Z" fill="#5D6065"/>
<path d="M438.27 256C438.102 256 437.962 255.944 437.85 255.832C437.738 255.72 437.682 255.585 437.682 255.426V246.774H438.872V255.426C438.872 255.585 438.816 255.72 438.704 255.832C438.592 255.944 438.447 256 438.27 256ZM435.022 247.264C434.863 247.264 434.728 247.217 434.616 247.124C434.513 247.021 434.462 246.891 434.462 246.732C434.462 246.573 434.513 246.447 434.616 246.354C434.728 246.251 434.863 246.2 435.022 246.2H441.532C441.691 246.2 441.826 246.251 441.938 246.354C442.05 246.447 442.106 246.573 442.106 246.732C442.106 246.9 442.05 247.031 441.938 247.124C441.826 247.217 441.691 247.264 441.532 247.264H435.022Z" fill="#5D6065"/>
<path d="M529.806 256C529.638 256 529.498 255.944 529.386 255.832C529.283 255.72 529.232 255.585 529.232 255.426V246.76C529.232 246.601 529.283 246.471 529.386 246.368C529.498 246.256 529.633 246.2 529.792 246.2H534.706C534.865 246.2 535 246.251 535.112 246.354C535.224 246.457 535.28 246.587 535.28 246.746C535.28 246.895 535.224 247.021 535.112 247.124C535 247.227 534.865 247.278 534.706 247.278H530.296L530.38 247.166V250.596L530.31 250.442H534.076C534.235 250.442 534.37 250.498 534.482 250.61C534.594 250.713 534.65 250.843 534.65 251.002C534.65 251.142 534.594 251.268 534.482 251.38C534.37 251.483 534.235 251.534 534.076 251.534H530.282L530.38 251.408V255.426C530.38 255.585 530.324 255.72 530.212 255.832C530.1 255.944 529.965 256 529.806 256Z" fill="#5D6065"/>
<path d="M624.088 256.14C623.397 256.14 622.791 256.037 622.268 255.832C621.745 255.627 621.241 255.3 620.756 254.852C620.691 254.787 620.635 254.717 620.588 254.642C620.551 254.558 620.532 254.469 620.532 254.376C620.532 254.227 620.583 254.096 620.686 253.984C620.798 253.863 620.933 253.802 621.092 253.802C621.223 253.802 621.339 253.853 621.442 253.956C621.806 254.311 622.198 254.581 622.618 254.768C623.047 254.955 623.528 255.048 624.06 255.048C624.471 255.048 624.839 254.983 625.166 254.852C625.502 254.721 625.768 254.539 625.964 254.306C626.16 254.073 626.258 253.802 626.258 253.494C626.249 253.121 626.137 252.813 625.922 252.57C625.717 252.327 625.427 252.127 625.054 251.968C624.69 251.8 624.265 251.66 623.78 251.548C623.351 251.445 622.954 251.319 622.59 251.17C622.235 251.021 621.927 250.839 621.666 250.624C621.405 250.4 621.199 250.134 621.05 249.826C620.91 249.509 620.84 249.14 620.84 248.72C620.84 248.188 620.98 247.721 621.26 247.32C621.54 246.919 621.927 246.611 622.422 246.396C622.917 246.172 623.486 246.06 624.13 246.06C624.699 246.06 625.236 246.153 625.74 246.34C626.253 246.527 626.664 246.783 626.972 247.11C627.159 247.287 627.252 247.46 627.252 247.628C627.252 247.768 627.191 247.899 627.07 248.02C626.958 248.132 626.827 248.188 626.678 248.188C626.575 248.188 626.482 248.151 626.398 248.076C626.239 247.899 626.039 247.74 625.796 247.6C625.553 247.46 625.287 247.348 624.998 247.264C624.709 247.18 624.419 247.138 624.13 247.138C623.701 247.138 623.323 247.203 622.996 247.334C622.669 247.455 622.413 247.633 622.226 247.866C622.049 248.09 621.96 248.361 621.96 248.678C621.96 249.033 622.063 249.327 622.268 249.56C622.473 249.784 622.749 249.971 623.094 250.12C623.439 250.26 623.822 250.386 624.242 250.498C624.699 250.61 625.119 250.741 625.502 250.89C625.894 251.03 626.23 251.207 626.51 251.422C626.79 251.637 627.005 251.912 627.154 252.248C627.313 252.575 627.392 252.981 627.392 253.466C627.392 253.979 627.247 254.437 626.958 254.838C626.669 255.239 626.272 255.557 625.768 255.79C625.273 256.014 624.713 256.131 624.088 256.14Z" fill="#5D6065"/>
<circle cx="59.5" cy="226" r="4.5" stroke="#EEEEEE" stroke-width="2"/>
<circle cx="153.5" cy="226" r="4.5" stroke="#EEEEEE" stroke-width="2"/>
<circle cx="247.5" cy="226" r="5.5" fill="#0AAAAA"/>
<circle cx="341.5" cy="226" r="4.5" stroke="#EEEEEE" stroke-width="2"/>
<circle cx="435.5" cy="226" r="4.5" stroke="#EEEEEE" stroke-width="2"/>
<circle cx="529.5" cy="226" r="4.5" stroke="#EEEEEE" stroke-width="2"/>
<circle cx="623.5" cy="226" r="4.5" stroke="#EEEEEE" stroke-width="2"/>
<path d="M54 179.684L78.6161 142.465C84.7633 133.17 105.27 132.467 115.5 136.885L142.772 149.522C154.404 154.545 167.907 149.216 172.973 137.603L185.487 108.913C190.891 96.5236 205.763 91.4432 217.618 97.937L227.363 103.275C239.469 109.906 254.649 104.455 259.771 91.6372L280.604 39.5C286.211 23.8789 307.803 22.5894 315.23 37.432L369.364 145.623C378.25 163.382 403.952 162.291 411.3 143.842L433.329 88.5326C440.251 71.1538 463.92 68.8675 474.04 84.6002L511.203 142.373C521.737 158.749 546.583 155.444 552.47 136.885L572.146 74.8573C576.165 62.1891 590.053 55.5534 602.433 60.3862L624.5 69" stroke="#0AAAAA" stroke-width="10" stroke-linecap="round"/>
<circle cx="246.5" cy="99" r="12.5" fill="#0AAAAA" stroke="white" stroke-width="6"/>
<g filter="url(#filter0_d_41_2)">
<path d="M99 6C91.8203 6 86 11.8203 86 19L86 69C86 76.1797 91.8203 82 99 82L225.738 82L237.649 82C239.499 82 240.358 79.7039 238.961 78.4903L230.211 70.8869C227.37 68.4179 225.738 64.8384 225.738 61.0741L225.738 19C225.738 11.8203 219.918 6.00001 212.738 6.00001L99 6Z" fill="white"/>
</g>
<path d="M122.908 25.4C123.196 25.4 123.43 25.496 123.61 25.688C123.79 25.88 123.88 26.12 123.88 26.408V36.902C123.88 37.214 123.772 37.478 123.556 37.694C123.352 37.898 123.094 38 122.782 38C122.626 38 122.464 37.976 122.296 37.928C122.14 37.868 122.02 37.79 121.936 37.694L114.862 28.712L115.33 28.424V36.992C115.33 37.28 115.234 37.52 115.042 37.712C114.862 37.904 114.622 38 114.322 38C114.034 38 113.8 37.904 113.62 37.712C113.44 37.52 113.35 37.28 113.35 36.992V26.498C113.35 26.186 113.452 25.928 113.656 25.724C113.872 25.508 114.136 25.4 114.448 25.4C114.616 25.4 114.79 25.436 114.97 25.508C115.15 25.568 115.282 25.664 115.366 25.796L122.224 34.544L121.918 34.76V26.408C121.918 26.12 122.008 25.88 122.188 25.688C122.368 25.496 122.608 25.4 122.908 25.4ZM129.574 38.18C129.13 38.18 128.656 38.114 128.152 37.982C127.648 37.838 127.234 37.634 126.91 37.37C126.754 37.238 126.628 37.07 126.532 36.866C126.448 36.65 126.406 36.446 126.406 36.254C126.406 36.05 126.49 35.858 126.658 35.678C126.838 35.498 127.09 35.408 127.414 35.408C127.63 35.408 127.9 35.522 128.224 35.75C128.416 35.87 128.626 35.978 128.854 36.074C129.082 36.17 129.316 36.218 129.556 36.218C130.132 36.218 130.63 36.116 131.05 35.912C131.47 35.696 131.794 35.402 132.022 35.03C132.25 34.658 132.364 34.22 132.364 33.716C132.364 33.26 132.256 32.87 132.04 32.546C131.836 32.222 131.56 31.97 131.212 31.79C130.876 31.61 130.51 31.52 130.114 31.52C129.742 31.52 129.418 31.58 129.142 31.7C128.866 31.82 128.614 31.946 128.386 32.078C128.158 32.198 127.93 32.258 127.702 32.258C127.306 32.258 127.012 32.174 126.82 32.006C126.628 31.826 126.508 31.616 126.46 31.376C126.412 31.136 126.4 30.92 126.424 30.728L126.982 26.354C127.03 26.102 127.15 25.898 127.342 25.742C127.546 25.574 127.786 25.49 128.062 25.49H133.264C133.552 25.49 133.792 25.586 133.984 25.778C134.176 25.97 134.272 26.21 134.272 26.498C134.272 26.774 134.176 27.008 133.984 27.2C133.792 27.38 133.552 27.47 133.264 27.47H128.62L128.818 27.308L128.332 30.962L128.098 30.278C128.17 30.158 128.326 30.044 128.566 29.936C128.806 29.828 129.082 29.738 129.394 29.666C129.706 29.582 130.012 29.54 130.312 29.54C131.116 29.54 131.836 29.726 132.472 30.098C133.108 30.458 133.606 30.956 133.966 31.592C134.338 32.216 134.524 32.924 134.524 33.716C134.524 34.616 134.32 35.402 133.912 36.074C133.504 36.746 132.928 37.268 132.184 37.64C131.452 38 130.582 38.18 129.574 38.18ZM139.513 37.856C139.513 38.252 139.399 38.648 139.171 39.044C138.955 39.452 138.667 39.788 138.307 40.052C137.959 40.328 137.587 40.466 137.191 40.466C137.059 40.466 136.915 40.412 136.759 40.304C136.615 40.196 136.543 40.01 136.543 39.746C136.543 39.47 136.627 39.302 136.795 39.242C136.975 39.194 137.125 39.14 137.245 39.08C137.401 38.996 137.521 38.894 137.605 38.774C137.701 38.666 137.749 38.528 137.749 38.36C137.749 38.228 137.683 38.108 137.551 38C137.431 37.904 137.269 37.856 137.065 37.856C136.993 37.856 136.909 37.868 136.813 37.892C136.717 37.904 136.633 37.934 136.561 37.982C136.441 37.922 136.333 37.85 136.237 37.766C136.153 37.67 136.111 37.52 136.111 37.316C136.111 36.944 136.279 36.626 136.615 36.362C136.963 36.086 137.365 35.948 137.821 35.948C138.337 35.948 138.745 36.122 139.045 36.47C139.357 36.818 139.513 37.28 139.513 37.856ZM148.808 36.02C149.096 36.02 149.336 36.116 149.528 36.308C149.72 36.5 149.816 36.74 149.816 37.028C149.816 37.304 149.72 37.538 149.528 37.73C149.336 37.91 149.096 38 148.808 38H142.688C142.376 38 142.13 37.904 141.95 37.712C141.77 37.52 141.68 37.274 141.68 36.974C141.68 36.674 141.788 36.41 142.004 36.182L145.928 31.988C146.372 31.508 146.72 31.016 146.972 30.512C147.236 30.008 147.368 29.57 147.368 29.198C147.368 28.598 147.194 28.118 146.846 27.758C146.498 27.386 146.036 27.2 145.46 27.2C145.232 27.2 144.998 27.254 144.758 27.362C144.518 27.47 144.284 27.62 144.056 27.812C143.84 28.004 143.636 28.226 143.444 28.478C143.3 28.67 143.156 28.79 143.012 28.838C142.868 28.886 142.736 28.91 142.616 28.91C142.352 28.91 142.106 28.814 141.878 28.622C141.662 28.418 141.554 28.184 141.554 27.92C141.554 27.716 141.62 27.518 141.752 27.326C141.896 27.134 142.07 26.936 142.274 26.732C142.574 26.432 142.91 26.168 143.282 25.94C143.654 25.712 144.038 25.538 144.434 25.418C144.83 25.286 145.214 25.22 145.586 25.22C146.39 25.22 147.086 25.382 147.674 25.706C148.274 26.018 148.736 26.468 149.06 27.056C149.384 27.632 149.546 28.316 149.546 29.108C149.546 29.768 149.348 30.506 148.952 31.322C148.568 32.126 148.046 32.882 147.386 33.59L144.956 36.182L144.758 36.02H148.808ZM155.943 38.18C155.295 38.18 154.707 38.048 154.179 37.784C153.663 37.508 153.219 37.136 152.847 36.668C152.487 36.2 152.205 35.672 152 35.084C151.809 34.496 151.713 33.89 151.713 33.266C151.713 32.858 151.755 32.366 151.839 31.79C151.935 31.214 152.097 30.608 152.325 29.972C152.553 29.336 152.871 28.718 153.279 28.118C153.687 27.518 154.203 26.978 154.827 26.498C155.463 26.018 156.237 25.652 157.149 25.4C157.293 25.364 157.431 25.346 157.563 25.346C157.839 25.346 158.085 25.418 158.301 25.562C158.529 25.706 158.643 25.97 158.643 26.354C158.643 26.618 158.553 26.852 158.373 27.056C158.205 27.248 157.977 27.386 157.689 27.47C157.281 27.59 156.873 27.77 156.465 28.01C156.069 28.238 155.697 28.52 155.349 28.856C155.013 29.192 154.719 29.576 154.467 30.008C154.227 30.428 154.053 30.884 153.945 31.376L153.458 31.358C153.627 31.154 153.831 30.938 154.071 30.71C154.323 30.47 154.623 30.266 154.971 30.098C155.331 29.918 155.751 29.828 156.231 29.828C156.699 29.828 157.161 29.936 157.617 30.152C158.085 30.368 158.505 30.668 158.877 31.052C159.261 31.424 159.567 31.868 159.795 32.384C160.023 32.888 160.137 33.428 160.137 34.004C160.137 34.772 159.945 35.474 159.561 36.11C159.189 36.746 158.685 37.25 158.049 37.622C157.425 37.994 156.723 38.18 155.943 38.18ZM155.943 36.2C156.327 36.2 156.669 36.104 156.969 35.912C157.281 35.72 157.527 35.456 157.707 35.12C157.887 34.784 157.977 34.412 157.977 34.004C157.977 33.584 157.887 33.212 157.707 32.888C157.527 32.552 157.281 32.288 156.969 32.096C156.669 31.904 156.327 31.808 155.943 31.808C155.559 31.808 155.211 31.904 154.899 32.096C154.599 32.288 154.359 32.552 154.179 32.888C153.999 33.212 153.909 33.584 153.909 34.004C153.909 34.412 153.999 34.784 154.179 35.12C154.359 35.456 154.599 35.72 154.899 35.912C155.211 36.104 155.559 36.2 155.943 36.2ZM166.288 38.18C165.256 38.18 164.38 37.91 163.66 37.37C162.952 36.818 162.412 36.056 162.04 35.084C161.668 34.1 161.482 32.972 161.482 31.7C161.482 30.416 161.668 29.288 162.04 28.316C162.412 27.344 162.952 26.588 163.66 26.048C164.38 25.496 165.256 25.22 166.288 25.22C167.32 25.22 168.19 25.496 168.898 26.048C169.618 26.588 170.164 27.344 170.536 28.316C170.908 29.288 171.094 30.416 171.094 31.7C171.094 32.972 170.908 34.1 170.536 35.084C170.164 36.056 169.618 36.818 168.898 37.37C168.19 37.91 167.32 38.18 166.288 38.18ZM166.288 36.02C166.792 36.02 167.224 35.864 167.584 35.552C167.956 35.228 168.244 34.748 168.448 34.112C168.652 33.464 168.754 32.66 168.754 31.7C168.754 30.728 168.652 29.924 168.448 29.288C168.244 28.652 167.956 28.178 167.584 27.866C167.224 27.542 166.792 27.38 166.288 27.38C165.796 27.38 165.364 27.542 164.992 27.866C164.62 28.178 164.332 28.652 164.128 29.288C163.924 29.924 163.822 30.728 163.822 31.7C163.822 32.66 163.924 33.464 164.128 34.112C164.332 34.748 164.62 35.228 164.992 35.552C165.364 35.864 165.796 36.02 166.288 36.02ZM173.942 37.982C173.594 37.982 173.324 37.892 173.132 37.712C172.952 37.52 172.862 37.25 172.862 36.902V36.596C172.862 36.248 172.952 35.984 173.132 35.804C173.324 35.612 173.594 35.516 173.942 35.516H174.176C174.524 35.516 174.788 35.612 174.968 35.804C175.16 35.984 175.256 36.248 175.256 36.596V36.902C175.256 37.25 175.16 37.52 174.968 37.712C174.788 37.892 174.524 37.982 174.176 37.982H173.942ZM180.639 38.18C180.195 38.18 179.721 38.114 179.217 37.982C178.713 37.838 178.299 37.634 177.975 37.37C177.819 37.238 177.693 37.07 177.597 36.866C177.513 36.65 177.471 36.446 177.471 36.254C177.471 36.05 177.555 35.858 177.723 35.678C177.903 35.498 178.155 35.408 178.479 35.408C178.695 35.408 178.965 35.522 179.289 35.75C179.481 35.87 179.691 35.978 179.919 36.074C180.147 36.17 180.381 36.218 180.621 36.218C181.197 36.218 181.695 36.116 182.115 35.912C182.535 35.696 182.859 35.402 183.087 35.03C183.315 34.658 183.429 34.22 183.429 33.716C183.429 33.26 183.321 32.87 183.105 32.546C182.901 32.222 182.625 31.97 182.277 31.79C181.941 31.61 181.575 31.52 181.179 31.52C180.807 31.52 180.483 31.58 180.207 31.7C179.931 31.82 179.679 31.946 179.451 32.078C179.223 32.198 178.995 32.258 178.767 32.258C178.371 32.258 178.077 32.174 177.885 32.006C177.693 31.826 177.573 31.616 177.525 31.376C177.477 31.136 177.465 30.92 177.489 30.728L178.047 26.354C178.095 26.102 178.215 25.898 178.407 25.742C178.611 25.574 178.851 25.49 179.127 25.49H184.329C184.617 25.49 184.857 25.586 185.049 25.778C185.241 25.97 185.337 26.21 185.337 26.498C185.337 26.774 185.241 27.008 185.049 27.2C184.857 27.38 184.617 27.47 184.329 27.47H179.685L179.883 27.308L179.397 30.962L179.163 30.278C179.235 30.158 179.391 30.044 179.631 29.936C179.871 29.828 180.147 29.738 180.459 29.666C180.771 29.582 181.077 29.54 181.377 29.54C182.181 29.54 182.901 29.726 183.537 30.098C184.173 30.458 184.671 30.956 185.031 31.592C185.403 32.216 185.589 32.924 185.589 33.716C185.589 34.616 185.385 35.402 184.977 36.074C184.569 36.746 183.993 37.268 183.249 37.64C182.517 38 181.647 38.18 180.639 38.18ZM192.198 38.18C191.166 38.18 190.29 37.91 189.57 37.37C188.862 36.818 188.322 36.056 187.95 35.084C187.578 34.1 187.392 32.972 187.392 31.7C187.392 30.416 187.578 29.288 187.95 28.316C188.322 27.344 188.862 26.588 189.57 26.048C190.29 25.496 191.166 25.22 192.198 25.22C193.23 25.22 194.1 25.496 194.808 26.048C195.528 26.588 196.074 27.344 196.446 28.316C196.818 29.288 197.004 30.416 197.004 31.7C197.004 32.972 196.818 34.1 196.446 35.084C196.074 36.056 195.528 36.818 194.808 37.37C194.1 37.91 193.23 38.18 192.198 38.18ZM192.198 36.02C192.702 36.02 193.134 35.864 193.494 35.552C193.866 35.228 194.154 34.748 194.358 34.112C194.562 33.464 194.664 32.66 194.664 31.7C194.664 30.728 194.562 29.924 194.358 29.288C194.154 28.652 193.866 28.178 193.494 27.866C193.134 27.542 192.702 27.38 192.198 27.38C191.706 27.38 191.274 27.542 190.902 27.866C190.53 28.178 190.242 28.652 190.038 29.288C189.834 29.924 189.732 30.728 189.732 31.7C189.732 32.66 189.834 33.464 190.038 34.112C190.242 34.748 190.53 35.228 190.902 35.552C191.274 35.864 191.706 36.02 192.198 36.02Z" fill="#5D6065"/>
<path d="M117.484 53.2C117.605 53.2 117.699 53.2373 117.764 53.312C117.839 53.3867 117.876 53.48 117.876 53.592V62.552C117.876 62.692 117.829 62.804 117.736 62.888C117.652 62.9627 117.554 63 117.442 63C117.386 63 117.325 62.9907 117.26 62.972C117.195 62.944 117.143 62.9067 117.106 62.86L110.862 54.446L111.1 54.32V62.622C111.1 62.7247 111.063 62.8133 110.988 62.888C110.913 62.9627 110.82 63 110.708 63C110.587 63 110.489 62.9627 110.414 62.888C110.349 62.8133 110.316 62.7247 110.316 62.622V53.62C110.316 53.48 110.358 53.3773 110.442 53.312C110.526 53.2373 110.619 53.2 110.722 53.2C110.778 53.2 110.839 53.214 110.904 53.242C110.969 53.2607 111.021 53.298 111.058 53.354L117.232 61.67L117.092 61.922V53.592C117.092 53.48 117.129 53.3867 117.204 53.312C117.288 53.2373 117.381 53.2 117.484 53.2ZM126.956 59.416C126.956 60.1253 126.802 60.7647 126.494 61.334C126.186 61.894 125.766 62.3373 125.234 62.664C124.702 62.9813 124.095 63.14 123.414 63.14C122.751 63.14 122.149 62.9813 121.608 62.664C121.076 62.3373 120.651 61.894 120.334 61.334C120.026 60.7647 119.872 60.1253 119.872 59.416C119.872 58.6973 120.026 58.058 120.334 57.498C120.651 56.938 121.076 56.4947 121.608 56.168C122.149 55.8413 122.751 55.678 123.414 55.678C124.095 55.678 124.702 55.8413 125.234 56.168C125.766 56.4947 126.186 56.938 126.494 57.498C126.802 58.058 126.956 58.6973 126.956 59.416ZM126.116 59.416C126.116 58.8467 125.999 58.3427 125.766 57.904C125.532 57.456 125.21 57.106 124.8 56.854C124.398 56.5927 123.936 56.462 123.414 56.462C122.91 56.462 122.452 56.5927 122.042 56.854C121.631 57.106 121.304 57.456 121.062 57.904C120.828 58.3427 120.712 58.8467 120.712 59.416C120.712 59.9853 120.828 60.4893 121.062 60.928C121.304 61.3667 121.631 61.7167 122.042 61.978C122.452 62.23 122.91 62.356 123.414 62.356C123.936 62.356 124.398 62.23 124.8 61.978C125.21 61.7167 125.532 61.3667 125.766 60.928C125.999 60.4893 126.116 59.9853 126.116 59.416ZM128.504 55.692C128.579 55.692 128.654 55.7153 128.728 55.762C128.803 55.8087 128.859 55.8787 128.896 55.972L131.346 61.796L131.164 61.908L133.67 55.972C133.745 55.7853 133.88 55.6967 134.076 55.706C134.17 55.706 134.258 55.7387 134.342 55.804C134.426 55.86 134.468 55.944 134.468 56.056C134.468 56.112 134.459 56.1587 134.44 56.196C134.431 56.224 134.422 56.2567 134.412 56.294L131.668 62.734C131.594 62.902 131.468 62.9907 131.29 63C131.206 63.0093 131.122 62.9907 131.038 62.944C130.964 62.888 130.908 62.818 130.87 62.734L128.112 56.294C128.103 56.2753 128.094 56.2473 128.084 56.21C128.075 56.1727 128.07 56.1353 128.07 56.098C128.07 55.9953 128.108 55.902 128.182 55.818C128.257 55.734 128.364 55.692 128.504 55.692ZM141.969 63C141.838 63 141.731 62.958 141.647 62.874C141.563 62.79 141.521 62.692 141.521 62.58V54.152L141.675 54.292L139.813 55.538C139.738 55.594 139.659 55.622 139.575 55.622C139.463 55.622 139.36 55.5753 139.267 55.482C139.183 55.3887 139.141 55.286 139.141 55.174C139.141 55.0247 139.215 54.908 139.365 54.824L141.703 53.27C141.759 53.2327 141.815 53.2093 141.871 53.2C141.936 53.1907 141.992 53.1907 142.039 53.2C142.16 53.2093 142.253 53.256 142.319 53.34C142.384 53.4147 142.417 53.508 142.417 53.62V62.58C142.417 62.692 142.375 62.79 142.291 62.874C142.207 62.958 142.099 63 141.969 63ZM150.622 62.188C150.734 62.188 150.828 62.23 150.902 62.314C150.986 62.3887 151.028 62.482 151.028 62.594C151.028 62.7153 150.986 62.8133 150.902 62.888C150.828 62.9627 150.734 63 150.622 63H145.372C145.251 63 145.144 62.9673 145.05 62.902C144.966 62.8273 144.924 62.72 144.924 62.58C144.924 62.4773 144.962 62.3793 145.036 62.286L148.27 58.716C148.784 58.156 149.166 57.6427 149.418 57.176C149.68 56.7 149.81 56.2753 149.81 55.902C149.81 55.286 149.624 54.7913 149.25 54.418C148.877 54.0447 148.373 53.858 147.738 53.858C147.449 53.858 147.16 53.9187 146.87 54.04C146.59 54.1613 146.338 54.32 146.114 54.516C145.9 54.712 145.732 54.936 145.61 55.188C145.554 55.2813 145.494 55.3467 145.428 55.384C145.372 55.4213 145.307 55.44 145.232 55.44C145.12 55.44 145.022 55.4073 144.938 55.342C144.854 55.2673 144.812 55.1787 144.812 55.076C144.812 55.0107 144.826 54.9453 144.854 54.88C144.892 54.8147 144.943 54.74 145.008 54.656C145.176 54.3667 145.41 54.1007 145.708 53.858C146.007 53.6153 146.338 53.424 146.702 53.284C147.076 53.1347 147.44 53.06 147.794 53.06C148.392 53.06 148.905 53.1767 149.334 53.41C149.773 53.634 150.109 53.956 150.342 54.376C150.585 54.7867 150.706 55.2767 150.706 55.846C150.706 56.3313 150.552 56.8633 150.244 57.442C149.946 58.0113 149.498 58.6273 148.9 59.29L146.17 62.356L146.03 62.188H150.622ZM152.382 55.874H155.644C155.756 55.874 155.85 55.916 155.924 56C155.999 56.0747 156.036 56.168 156.036 56.28C156.036 56.3827 155.999 56.4713 155.924 56.546C155.85 56.6207 155.756 56.658 155.644 56.658H152.382C152.27 56.658 152.172 56.6207 152.088 56.546C152.014 56.462 151.976 56.3687 151.976 56.266C151.976 56.154 152.014 56.0607 152.088 55.986C152.172 55.9113 152.27 55.874 152.382 55.874ZM153.824 53.9C153.946 53.9 154.044 53.942 154.118 54.026C154.202 54.11 154.244 54.208 154.244 54.32V61.348C154.244 61.6093 154.277 61.8053 154.342 61.936C154.417 62.0667 154.51 62.1553 154.622 62.202C154.734 62.2393 154.846 62.258 154.958 62.258C155.033 62.258 155.098 62.2487 155.154 62.23C155.22 62.202 155.29 62.188 155.364 62.188C155.448 62.188 155.518 62.2207 155.574 62.286C155.64 62.3513 155.672 62.4353 155.672 62.538C155.672 62.6687 155.598 62.7807 155.448 62.874C155.299 62.958 155.122 63 154.916 63C154.832 63 154.706 62.9953 154.538 62.986C154.37 62.9673 154.198 62.916 154.02 62.832C153.843 62.7387 153.694 62.58 153.572 62.356C153.46 62.132 153.404 61.81 153.404 61.39V54.32C153.404 54.208 153.442 54.11 153.516 54.026C153.6 53.942 153.703 53.9 153.824 53.9ZM160.85 55.79C161.438 55.79 161.914 55.916 162.278 56.168C162.642 56.42 162.908 56.7607 163.076 57.19C163.254 57.6193 163.342 58.0953 163.342 58.618V62.58C163.342 62.692 163.3 62.79 163.216 62.874C163.132 62.958 163.034 63 162.922 63C162.792 63 162.689 62.958 162.614 62.874C162.54 62.79 162.502 62.692 162.502 62.58V58.618C162.502 58.2353 162.442 57.89 162.32 57.582C162.208 57.274 162.022 57.0313 161.76 56.854C161.499 56.6673 161.149 56.574 160.71 56.574C160.318 56.574 159.945 56.6673 159.59 56.854C159.245 57.0313 158.965 57.274 158.75 57.582C158.536 57.89 158.428 58.2353 158.428 58.618V62.58C158.428 62.692 158.386 62.79 158.302 62.874C158.218 62.958 158.12 63 158.008 63C157.878 63 157.775 62.958 157.7 62.874C157.626 62.79 157.588 62.692 157.588 62.58V53.06C157.588 52.948 157.626 52.85 157.7 52.766C157.784 52.682 157.887 52.64 158.008 52.64C158.13 52.64 158.228 52.682 158.302 52.766C158.386 52.85 158.428 52.948 158.428 53.06V57.596L158.106 58.086C158.125 57.7967 158.214 57.5167 158.372 57.246C158.54 56.966 158.755 56.7187 159.016 56.504C159.278 56.28 159.567 56.1073 159.884 55.986C160.202 55.8553 160.524 55.79 160.85 55.79ZM166.665 63.112C166.665 63.364 166.591 63.6067 166.441 63.84C166.292 64.0827 166.11 64.2787 165.895 64.428C165.681 64.5867 165.471 64.666 165.265 64.666C165.191 64.666 165.116 64.6427 165.041 64.596C164.976 64.5493 164.943 64.4607 164.943 64.33C164.943 64.1993 164.985 64.1247 165.069 64.106C165.163 64.0967 165.275 64.0547 165.405 63.98C165.564 63.9053 165.685 63.812 165.769 63.7C165.853 63.588 165.895 63.4573 165.895 63.308C165.895 63.1867 165.858 63.0933 165.783 63.028C165.718 62.9627 165.639 62.93 165.545 62.93C165.48 62.93 165.415 62.9393 165.349 62.958C165.284 62.9767 165.223 63.0047 165.167 63.042C165.121 62.9953 165.079 62.944 165.041 62.888C165.004 62.832 164.99 62.762 164.999 62.678C165.018 62.5193 165.102 62.384 165.251 62.272C165.41 62.1507 165.592 62.09 165.797 62.09C166.049 62.09 166.255 62.1927 166.413 62.398C166.581 62.6033 166.665 62.8413 166.665 63.112ZM177.624 62.188C177.736 62.188 177.83 62.23 177.904 62.314C177.988 62.3887 178.03 62.482 178.03 62.594C178.03 62.7153 177.988 62.8133 177.904 62.888C177.83 62.9627 177.736 63 177.624 63H172.374C172.253 63 172.146 62.9673 172.052 62.902C171.968 62.8273 171.926 62.72 171.926 62.58C171.926 62.4773 171.964 62.3793 172.038 62.286L175.272 58.716C175.786 58.156 176.168 57.6427 176.42 57.176C176.682 56.7 176.812 56.2753 176.812 55.902C176.812 55.286 176.626 54.7913 176.252 54.418C175.879 54.0447 175.375 53.858 174.74 53.858C174.451 53.858 174.162 53.9187 173.872 54.04C173.592 54.1613 173.34 54.32 173.116 54.516C172.902 54.712 172.734 54.936 172.612 55.188C172.556 55.2813 172.496 55.3467 172.43 55.384C172.374 55.4213 172.309 55.44 172.234 55.44C172.122 55.44 172.024 55.4073 171.94 55.342C171.856 55.2673 171.814 55.1787 171.814 55.076C171.814 55.0107 171.828 54.9453 171.856 54.88C171.894 54.8147 171.945 54.74 172.01 54.656C172.178 54.3667 172.412 54.1007 172.71 53.858C173.009 53.6153 173.34 53.424 173.704 53.284C174.078 53.1347 174.442 53.06 174.796 53.06C175.394 53.06 175.907 53.1767 176.336 53.41C176.775 53.634 177.111 53.956 177.344 54.376C177.587 54.7867 177.708 55.2767 177.708 55.846C177.708 56.3313 177.554 56.8633 177.246 57.442C176.948 58.0113 176.5 58.6273 175.902 59.29L173.172 62.356L173.032 62.188H177.624ZM182.898 63.14C182.152 63.14 181.526 62.916 181.022 62.468C180.518 62.02 180.14 61.418 179.888 60.662C179.636 59.8967 179.51 59.0427 179.51 58.1C179.51 57.148 179.636 56.294 179.888 55.538C180.14 54.7727 180.518 54.1707 181.022 53.732C181.526 53.284 182.152 53.06 182.898 53.06C183.664 53.06 184.294 53.284 184.788 53.732C185.292 54.1707 185.67 54.7727 185.922 55.538C186.174 56.294 186.3 57.148 186.3 58.1C186.3 59.0427 186.174 59.8967 185.922 60.662C185.67 61.418 185.292 62.02 184.788 62.468C184.294 62.916 183.664 63.14 182.898 63.14ZM182.898 62.272C183.449 62.272 183.906 62.0993 184.27 61.754C184.644 61.4087 184.924 60.9233 185.11 60.298C185.306 59.6633 185.404 58.9307 185.404 58.1C185.404 57.26 185.306 56.5273 185.11 55.902C184.924 55.2673 184.644 54.7773 184.27 54.432C183.906 54.0867 183.449 53.914 182.898 53.914C182.357 53.914 181.9 54.0867 181.526 54.432C181.162 54.7773 180.882 55.2673 180.686 55.902C180.5 56.5273 180.406 57.26 180.406 58.1C180.406 58.9307 180.5 59.6633 180.686 60.298C180.882 60.9233 181.162 61.4087 181.526 61.754C181.9 62.0993 182.357 62.272 182.898 62.272ZM193.702 62.188C193.814 62.188 193.908 62.23 193.982 62.314C194.066 62.3887 194.108 62.482 194.108 62.594C194.108 62.7153 194.066 62.8133 193.982 62.888C193.908 62.9627 193.814 63 193.702 63H188.452C188.331 63 188.224 62.9673 188.13 62.902C188.046 62.8273 188.004 62.72 188.004 62.58C188.004 62.4773 188.042 62.3793 188.116 62.286L191.35 58.716C191.864 58.156 192.246 57.6427 192.498 57.176C192.76 56.7 192.89 56.2753 192.89 55.902C192.89 55.286 192.704 54.7913 192.33 54.418C191.957 54.0447 191.453 53.858 190.818 53.858C190.529 53.858 190.24 53.9187 189.95 54.04C189.67 54.1613 189.418 54.32 189.194 54.516C188.98 54.712 188.812 54.936 188.69 55.188C188.634 55.2813 188.574 55.3467 188.508 55.384C188.452 55.4213 188.387 55.44 188.312 55.44C188.2 55.44 188.102 55.4073 188.018 55.342C187.934 55.2673 187.892 55.1787 187.892 55.076C187.892 55.0107 187.906 54.9453 187.934 54.88C187.972 54.8147 188.023 54.74 188.088 54.656C188.256 54.3667 188.49 54.1007 188.788 53.858C189.087 53.6153 189.418 53.424 189.782 53.284C190.156 53.1347 190.52 53.06 190.874 53.06C191.472 53.06 191.985 53.1767 192.414 53.41C192.853 53.634 193.189 53.956 193.422 54.376C193.665 54.7867 193.786 55.2767 193.786 55.846C193.786 56.3313 193.632 56.8633 193.324 57.442C193.026 58.0113 192.578 58.6273 191.98 59.29L189.25 62.356L189.11 62.188H193.702ZM201.454 62.188C201.566 62.188 201.66 62.23 201.734 62.314C201.818 62.3887 201.86 62.482 201.86 62.594C201.86 62.7153 201.818 62.8133 201.734 62.888C201.66 62.9627 201.566 63 201.454 63H196.204C196.083 63 195.976 62.9673 195.882 62.902C195.798 62.8273 195.756 62.72 195.756 62.58C195.756 62.4773 195.794 62.3793 195.868 62.286L199.102 58.716C199.616 58.156 199.998 57.6427 200.25 57.176C200.512 56.7 200.642 56.2753 200.642 55.902C200.642 55.286 200.456 54.7913 200.082 54.418C199.709 54.0447 199.205 53.858 198.57 53.858C198.281 53.858 197.992 53.9187 197.702 54.04C197.422 54.1613 197.17 54.32 196.946 54.516C196.732 54.712 196.564 54.936 196.442 55.188C196.386 55.2813 196.326 55.3467 196.26 55.384C196.204 55.4213 196.139 55.44 196.064 55.44C195.952 55.44 195.854 55.4073 195.77 55.342C195.686 55.2673 195.644 55.1787 195.644 55.076C195.644 55.0107 195.658 54.9453 195.686 54.88C195.724 54.8147 195.775 54.74 195.84 54.656C196.008 54.3667 196.242 54.1007 196.54 53.858C196.839 53.6153 197.17 53.424 197.534 53.284C197.908 53.1347 198.272 53.06 198.626 53.06C199.224 53.06 199.737 53.1767 200.166 53.41C200.605 53.634 200.941 53.956 201.174 54.376C201.417 54.7867 201.538 55.2767 201.538 55.846C201.538 56.3313 201.384 56.8633 201.076 57.442C200.778 58.0113 200.33 58.6273 199.732 59.29L197.002 62.356L196.862 62.188H201.454Z" fill="#86888C"/>
<path d="M4.22 153.5C4.052 153.5 3.912 153.444 3.8 153.332C3.688 153.22 3.632 153.085 3.632 152.926V144.96L3.8 145.156L2.218 146.248C2.12467 146.313 2.01733 146.346 1.896 146.346C1.73733 146.346 1.602 146.29 1.49 146.178C1.378 146.057 1.322 145.921 1.322 145.772C1.322 145.567 1.42 145.403 1.616 145.282L3.842 143.812C3.91667 143.765 3.99133 143.733 4.066 143.714C4.14067 143.695 4.21533 143.691 4.29 143.7C4.458 143.7 4.58867 143.756 4.682 143.868C4.78467 143.971 4.836 144.101 4.836 144.26V152.926C4.836 153.085 4.77533 153.22 4.654 153.332C4.542 153.444 4.39733 153.5 4.22 153.5ZM7.97167 153.5C7.80367 153.5 7.66834 153.444 7.56567 153.332C7.46301 153.22 7.41167 153.085 7.41167 152.926V143.7C7.41167 143.541 7.46301 143.411 7.56567 143.308C7.66834 143.196 7.80367 143.14 7.97167 143.14C8.13034 143.14 8.26101 143.196 8.36367 143.308C8.47567 143.411 8.53167 143.541 8.53167 143.7V152.926C8.53167 153.085 8.47567 153.22 8.36367 153.332C8.26101 153.444 8.13034 153.5 7.97167 153.5ZM12.6197 146.22C12.769 146.22 12.895 146.281 12.9977 146.402C13.1097 146.514 13.1657 146.631 13.1657 146.752C13.1657 146.911 13.091 147.051 12.9417 147.172L8.40567 151.134L8.36367 149.832L12.2277 146.388C12.3397 146.276 12.4703 146.22 12.6197 146.22ZM12.7737 153.486C12.615 153.486 12.475 153.425 12.3537 153.304L9.37167 150.126L10.2117 149.356L13.1657 152.52C13.2777 152.641 13.3337 152.781 13.3337 152.94C13.3337 153.108 13.2683 153.243 13.1377 153.346C13.007 153.439 12.8857 153.486 12.7737 153.486Z" fill="#787878"/>
<path d="M13.214 206.64C12.4393 206.64 11.7907 206.421 11.268 205.982C10.7547 205.543 10.3627 204.941 10.092 204.176C9.83067 203.411 9.7 202.552 9.7 201.6C9.7 200.629 9.83067 199.766 10.092 199.01C10.3627 198.254 10.7547 197.657 11.268 197.218C11.7907 196.779 12.4393 196.56 13.214 196.56C13.9887 196.56 14.6327 196.779 15.146 197.218C15.6687 197.657 16.0607 198.254 16.322 199.01C16.5833 199.766 16.714 200.629 16.714 201.6C16.714 202.552 16.5833 203.411 16.322 204.176C16.0607 204.941 15.6687 205.543 15.146 205.982C14.6327 206.421 13.9887 206.64 13.214 206.64ZM13.214 205.506C13.7087 205.506 14.124 205.347 14.46 205.03C14.8053 204.713 15.0667 204.265 15.244 203.686C15.4213 203.098 15.51 202.403 15.51 201.6C15.51 200.788 15.4213 200.093 15.244 199.514C15.0667 198.926 14.8053 198.478 14.46 198.17C14.124 197.853 13.7087 197.694 13.214 197.694C12.7193 197.694 12.2993 197.853 11.954 198.17C11.618 198.478 11.3567 198.926 11.17 199.514C10.9927 200.093 10.904 200.788 10.904 201.6C10.904 202.403 10.9927 203.098 11.17 203.686C11.3567 204.265 11.618 204.713 11.954 205.03C12.2993 205.347 12.7193 205.506 13.214 205.506Z" fill="#787878"/>
<path d="M3.318 103.556C2.94467 103.556 2.562 103.5 2.17 103.388C1.78733 103.267 1.45133 103.089 1.162 102.856C1.08733 102.791 1.02667 102.707 0.98 102.604C0.933333 102.501 0.91 102.403 0.91 102.31C0.91 102.198 0.956667 102.091 1.05 101.988C1.15267 101.876 1.28333 101.82 1.442 101.82C1.56333 101.82 1.70333 101.881 1.862 102.002C2.06733 102.161 2.296 102.287 2.548 102.38C2.8 102.473 3.052 102.52 3.304 102.52C3.82667 102.52 4.27933 102.422 4.662 102.226C5.04467 102.03 5.33867 101.755 5.544 101.4C5.74933 101.045 5.852 100.63 5.852 100.154C5.852 99.7247 5.754 99.3513 5.558 99.034C5.37133 98.7073 5.10533 98.4553 4.76 98.278C4.424 98.1007 4.03667 98.012 3.598 98.012C3.27133 98.012 2.97733 98.0633 2.716 98.166C2.464 98.2593 2.24 98.3573 2.044 98.46C1.85733 98.5627 1.694 98.614 1.554 98.614C1.37667 98.614 1.24133 98.5767 1.148 98.502C1.05467 98.418 0.994 98.3153 0.966 98.194C0.938 98.0727 0.928667 97.9607 0.938 97.858L1.484 94.232C1.512 94.1107 1.57733 94.0033 1.68 93.91C1.78267 93.8167 1.90867 93.77 2.058 93.77H6.216C6.36533 93.77 6.49133 93.8213 6.594 93.924C6.69667 94.0267 6.748 94.1573 6.748 94.316C6.748 94.4653 6.69667 94.5913 6.594 94.694C6.49133 94.7873 6.36533 94.834 6.216 94.834H2.338L2.478 94.708L1.96 97.872L1.736 97.578C1.83867 97.4847 1.99267 97.3913 2.198 97.298C2.41267 97.2047 2.65533 97.1253 2.926 97.06C3.206 96.9947 3.49067 96.962 3.78 96.962C4.38667 96.962 4.928 97.102 5.404 97.382C5.88933 97.6527 6.272 98.026 6.552 98.502C6.832 98.978 6.972 99.524 6.972 100.14C6.972 100.821 6.82267 101.419 6.524 101.932C6.22533 102.445 5.80067 102.847 5.25 103.136C4.70867 103.416 4.06467 103.556 3.318 103.556ZM9.4873 103.5C9.3193 103.5 9.18396 103.444 9.0813 103.332C8.97863 103.22 8.9273 103.085 8.9273 102.926V93.7C8.9273 93.5413 8.97863 93.4107 9.0813 93.308C9.18396 93.196 9.3193 93.14 9.4873 93.14C9.64596 93.14 9.77663 93.196 9.8793 93.308C9.9913 93.4107 10.0473 93.5413 10.0473 93.7V102.926C10.0473 103.085 9.9913 103.22 9.8793 103.332C9.77663 103.444 9.64596 103.5 9.4873 103.5ZM14.1353 96.22C14.2846 96.22 14.4106 96.2807 14.5133 96.402C14.6253 96.514 14.6813 96.6307 14.6813 96.752C14.6813 96.9107 14.6066 97.0507 14.4573 97.172L9.9213 101.134L9.8793 99.832L13.7433 96.388C13.8553 96.276 13.986 96.22 14.1353 96.22ZM14.2893 103.486C14.1306 103.486 13.9906 103.425 13.8693 103.304L10.8873 100.126L11.7273 99.356L14.6813 102.52C14.7933 102.641 14.8493 102.781 14.8493 102.94C14.8493 103.108 14.784 103.243 14.6533 103.346C14.5226 103.439 14.4013 103.486 14.2893 103.486Z" fill="#787878"/>
<path d="M3.22 52.5C3.052 52.5 2.912 52.444 2.8 52.332C2.688 52.22 2.632 52.0847 2.632 51.926V43.96L2.8 44.156L1.218 45.248C1.12467 45.3133 1.01733 45.346 0.896 45.346C0.737333 45.346 0.602 45.29 0.49 45.178C0.378 45.0567 0.322 44.9213 0.322 44.772C0.322 44.5667 0.42 44.4033 0.616 44.282L2.842 42.812C2.91667 42.7653 2.99133 42.7327 3.066 42.714C3.14067 42.6953 3.21533 42.6907 3.29 42.7C3.458 42.7 3.58867 42.756 3.682 42.868C3.78467 42.9707 3.836 43.1013 3.836 43.26V51.926C3.836 52.0847 3.77533 52.22 3.654 52.332C3.542 52.444 3.39733 52.5 3.22 52.5ZM9.47767 52.64C8.70301 52.64 8.05434 52.4207 7.53167 51.982C7.01834 51.5433 6.62634 50.9413 6.35567 50.176C6.09434 49.4107 5.96367 48.552 5.96367 47.6C5.96367 46.6293 6.09434 45.766 6.35567 45.01C6.62634 44.254 7.01834 43.6567 7.53167 43.218C8.05434 42.7793 8.70301 42.56 9.47767 42.56C10.2523 42.56 10.8963 42.7793 11.4097 43.218C11.9323 43.6567 12.3243 44.254 12.5857 45.01C12.847 45.766 12.9777 46.6293 12.9777 47.6C12.9777 48.552 12.847 49.4107 12.5857 50.176C12.3243 50.9413 11.9323 51.5433 11.4097 51.982C10.8963 52.4207 10.2523 52.64 9.47767 52.64ZM9.47767 51.506C9.97234 51.506 10.3877 51.3473 10.7237 51.03C11.069 50.7127 11.3303 50.2647 11.5077 49.686C11.685 49.098 11.7737 48.4027 11.7737 47.6C11.7737 46.788 11.685 46.0927 11.5077 45.514C11.3303 44.926 11.069 44.478 10.7237 44.17C10.3877 43.8527 9.97234 43.694 9.47767 43.694C8.98301 43.694 8.56301 43.8527 8.21767 44.17C7.88167 44.478 7.62034 44.926 7.43367 45.514C7.25634 46.0927 7.16767 46.788 7.16767 47.6C7.16767 48.4027 7.25634 49.098 7.43367 49.686C7.62034 50.2647 7.88167 50.7127 8.21767 51.03C8.56301 51.3473 8.98301 51.506 9.47767 51.506ZM15.3799 52.5C15.2119 52.5 15.0765 52.444 14.9739 52.332C14.8712 52.22 14.8199 52.0847 14.8199 51.926V42.7C14.8199 42.5413 14.8712 42.4107 14.9739 42.308C15.0765 42.196 15.2119 42.14 15.3799 42.14C15.5385 42.14 15.6692 42.196 15.7719 42.308C15.8839 42.4107 15.9399 42.5413 15.9399 42.7V51.926C15.9399 52.0847 15.8839 52.22 15.7719 52.332C15.6692 52.444 15.5385 52.5 15.3799 52.5ZM20.0279 45.22C20.1772 45.22 20.3032 45.2807 20.4059 45.402C20.5179 45.514 20.5739 45.6307 20.5739 45.752C20.5739 45.9107 20.4992 46.0507 20.3499 46.172L15.8139 50.134L15.7719 48.832L19.6359 45.388C19.7479 45.276 19.8785 45.22 20.0279 45.22ZM20.1819 52.486C20.0232 52.486 19.8832 52.4253 19.7619 52.304L16.7799 49.126L17.6199 48.356L20.5739 51.52C20.6859 51.6413 20.7419 51.7813 20.7419 51.94C20.7419 52.108 20.6765 52.2433 20.5459 52.346C20.4152 52.4393 20.2939 52.486 20.1819 52.486Z" fill="#787878"/>
<defs>
<filter id="filter0_d_41_2" x="65" y="9.53674e-07" width="195.653" height="118" filterUnits="userSpaceOnUse" color-interpolation-filters="sRGB">
<feFlood flood-opacity="0" result="BackgroundImageFix"/>
<feColorMatrix in="SourceAlpha" type="matrix" values="0 0 0 0 0 0 0 0 0 0 0 0 0 0 0 0 0 0 127 0" result="hardAlpha"/>
<feOffset dy="15"/>
<feGaussianBlur stdDeviation="10.5"/>
<feColorMatrix type="matrix" values="0 0 0 0 0 0 0 0 0 0 0 0 0 0 0 0 0 0 0.06 0"/>
<feBlend mode="normal" in2="BackgroundImageFix" result="effect1_dropShadow_41_2"/>
<feBlend mode="normal" in="SourceGraphic" in2="effect1_dropShadow_41_2" result="shape"/>
</filter>
</defs>
</svg>
